<svg width="14" height="11" viewBox="0 0 14 11" fill="none" xmlns="http://www.w3.org/2000/svg">
<path d="M12.7273 3.27283C11.8045 3.27283 11.2891 4.18919 11.4991 4.8701L9.24 7.13556C9.04909 7.07829 8.76909 7.07829 8.57818 7.13556L6.95545 5.51283C7.17182 4.83192 6.65636 3.90919 5.72727 3.90919C4.80455 3.90919 4.28273 4.82556 4.49909 5.51283L1.59727 8.40829C0.916364 8.19829 0 8.71375 0 9.63648C0 10.3365 0.572727 10.9092 1.27273 10.9092C2.19545 10.9092 2.71091 9.99284 2.50091 9.31193L5.39636 6.41011C5.58727 6.46738 5.86727 6.46738 6.05818 6.41011L7.68091 8.03284C7.46455 8.71375 7.98 9.63648 8.90909 9.63648C9.83182 9.63648 10.3536 8.72011 10.1373 8.03284L12.4027 5.77374C13.0836 5.98374 14 5.46829 14 4.54556C14 3.84556 13.4273 3.27283 12.7273 3.27283Z" fill="white"/>
<path d="M8.90909 3.90889L9.50727 2.59161L10.8182 1.99979L9.50727 1.40797L8.90909 0.0906982L8.32363 1.40797L7 1.99979L8.32363 2.59161L8.90909 3.90889Z" fill="white"/>
<path d="M1.59089 5.18209L1.90906 3.90935L3.18177 3.59117L1.90906 3.27298L1.59089 2.00024L1.27271 3.27298L0 3.59117L1.27271 3.90935L1.59089 5.18209Z" fill="white"/>
</svg>
