<svg width="133" height="30" viewBox="0 0 133 30" fill="none" xmlns="http://www.w3.org/2000/svg">
<path d="M21.5449 8.08C19.7109 8.08 18.6749 8.36 17.9609 9.242C17.2749 10.124 17.0509 11.384 17.0509 13.568C17.0509 15.752 17.2749 17.012 17.9609 17.908C18.6749 18.79 19.7109 19.07 21.5449 19.07C22.6929 19.07 23.6169 19 24.3029 18.86C24.5129 18.804 24.6249 18.678 24.6249 18.496V17.362C24.6249 17.222 24.5549 17.152 24.4149 17.152H21.5449C20.6069 17.152 19.9909 16.914 19.6969 16.424C19.4169 15.934 19.2769 14.982 19.2769 13.568C19.2769 12.154 19.4169 11.216 19.6969 10.726C19.9909 10.236 20.6069 9.998 21.5449 9.998H24.4149C24.5549 9.998 24.6249 9.928 24.6249 9.788V8.668C24.6249 8.472 24.5129 8.346 24.3029 8.29C23.5329 8.15 22.6229 8.08 21.5449 8.08ZM29.1095 11.09C27.6675 11.09 26.7015 11.356 26.2395 11.888C25.7775 12.406 25.5395 13.47 25.5395 15.08C25.5395 16.69 25.7775 17.754 26.2395 18.286C26.7015 18.804 27.6675 19.07 29.1095 19.07C30.5515 19.07 31.5175 18.804 31.9795 18.286C32.4415 17.754 32.6795 16.69 32.6795 15.08C32.6795 13.414 32.5395 12.518 31.9795 11.902C31.4195 11.272 30.6215 11.09 29.1095 11.09ZM29.1095 12.882C29.7395 12.882 30.1455 13.022 30.3275 13.316C30.5095 13.596 30.6075 14.184 30.6075 15.08C30.6075 15.976 30.5095 16.564 30.3275 16.858C30.1455 17.138 29.7395 17.278 29.1095 17.278C28.4795 17.278 28.0735 17.138 27.8915 16.858C27.7095 16.564 27.6255 15.976 27.6255 15.08C27.6255 14.184 27.7095 13.596 27.8915 13.316C28.0735 13.022 28.4795 12.882 29.1095 12.882ZM37.6593 11.09C36.1333 11.09 35.0273 11.174 34.3133 11.328C34.1733 11.356 34.1033 11.37 34.1033 11.538V18.776C34.1033 18.93 34.1733 19 34.3133 19H35.9793C36.1193 19 36.1893 18.93 36.1893 18.776V12.882H37.4633C38.1913 12.882 38.4433 12.896 38.6813 13.19C38.9473 13.484 38.9613 13.932 38.9613 14.982V18.776C38.9613 18.93 39.0313 19 39.1713 19H40.8233C40.9773 19 41.0473 18.93 41.0473 18.776V14.45C41.0473 12.994 40.9073 12.21 40.3473 11.706C39.8013 11.202 39.0733 11.09 37.6593 11.09ZM46.2179 11.09C44.6919 11.09 43.5859 11.174 42.8719 11.328C42.7319 11.356 42.6619 11.37 42.6619 11.538V18.776C42.6619 18.93 42.7319 19 42.8719 19H44.5379C44.6779 19 44.7479 18.93 44.7479 18.776V12.882H46.0219C46.7499 12.882 47.0019 12.896 47.2399 13.19C47.5059 13.484 47.5199 13.932 47.5199 14.982V18.776C47.5199 18.93 47.5899 19 47.7299 19H49.3819C49.5359 19 49.6059 18.93 49.6059 18.776V14.45C49.6059 12.994 49.4659 12.21 48.9059 11.706C48.3599 11.202 47.6319 11.09 46.2179 11.09ZM54.5105 11.09C53.0965 11.09 52.1585 11.356 51.6965 11.888C51.2345 12.406 50.9965 13.47 50.9965 15.08C50.9965 16.676 51.2345 17.74 51.6965 18.272C52.1585 18.804 53.0965 19.07 54.5105 19.07C55.6725 19.07 56.5545 19 57.1845 18.874C57.3105 18.86 57.3805 18.776 57.3805 18.65V17.488C57.3805 17.348 57.3105 17.278 57.1705 17.278H54.6925C54.0625 17.278 53.6425 17.18 53.4325 16.998C53.2225 16.816 53.1245 16.41 53.1105 15.794H57.5065C57.8565 15.794 57.9545 15.696 57.9545 15.416V14.982C57.9405 13.428 57.7165 12.392 57.2545 11.874C56.8065 11.356 55.8965 11.09 54.5105 11.09ZM54.5105 12.882C55.5325 12.882 55.8545 13.218 55.8685 14.436H53.0965C53.1105 13.218 53.4465 12.882 54.5105 12.882ZM62.5916 11.09C61.0656 11.09 60.2396 11.244 59.6936 11.902C59.1756 12.532 59.0356 13.4 59.0356 15.08C59.0356 16.76 59.1756 17.614 59.6936 18.272C60.2396 18.902 61.0656 19.07 62.5916 19.07C63.5296 19.07 64.2856 19 64.8736 18.874C65.0276 18.846 65.1116 18.762 65.1116 18.608V17.488C65.1116 17.348 65.0276 17.278 64.8736 17.278H62.5916C61.9616 17.278 61.5556 17.138 61.3736 16.858C61.1916 16.564 61.1076 15.976 61.1076 15.08C61.1076 14.17 61.1916 13.582 61.3736 13.302C61.5556 13.022 61.9616 12.882 62.5916 12.882H64.8736C65.0276 12.882 65.1116 12.812 65.1116 12.658V11.552C65.1116 11.398 65.0276 11.3 64.8736 11.272C64.2716 11.146 63.5156 11.09 62.5916 11.09ZM67.11 9.424C66.984 9.452 66.914 9.522 66.914 9.648V11.202H66.088C65.934 11.202 65.864 11.272 65.864 11.412V12.532C65.864 12.672 65.934 12.742 66.088 12.742H66.914V17.264C66.97 18.328 67.236 18.762 67.894 18.944C68.356 19.07 68.608 19.07 69.21 19.07C69.588 19.07 69.98 19.028 70.4 18.944C70.554 18.916 70.624 18.832 70.624 18.678V17.488C70.624 17.348 70.54 17.278 70.386 17.278H69.812C69.182 17.278 68.986 17.138 68.986 16.564V12.742H70.274C70.428 12.742 70.512 12.672 70.512 12.532V11.412C70.512 11.272 70.428 11.202 70.274 11.202H68.986V9.2C68.986 9.018 68.916 8.948 68.762 8.99L67.11 9.424ZM86.2882 8.164C86.1622 8.164 86.1202 8.206 86.0782 8.388L84.5802 16.41C84.5102 16.746 84.4402 16.83 84.2582 16.83C84.0342 16.83 84.0062 16.76 83.9082 16.41L82.0602 8.766C82.0182 8.612 81.9342 8.542 81.7802 8.542H80.1282C79.9742 8.542 79.8762 8.612 79.8342 8.766L78.0002 16.41C77.9022 16.76 77.8602 16.83 77.6362 16.83C77.4542 16.83 77.3842 16.76 77.3142 16.41L75.8162 8.388C75.7882 8.234 75.7182 8.164 75.6202 8.164H73.7582C73.6042 8.164 73.5482 8.234 73.5762 8.388L75.3122 17.404C75.4662 18.146 75.6482 18.608 75.8862 18.79C76.1242 18.972 76.6422 19.07 77.4122 19.07C79.2462 18.986 79.2602 18.972 79.6942 17.404L80.9542 12.112L82.2002 17.404C82.3822 18.16 82.5922 18.622 82.8302 18.804C83.0682 18.986 83.6282 19.07 84.4962 19.07C85.2662 19.07 85.7702 18.972 86.0082 18.79C86.2462 18.608 86.4422 18.146 86.5822 17.404L88.3322 8.388C88.3602 8.234 88.2902 8.164 88.1362 8.164H86.2882ZM91.7028 11.09C90.7228 11.09 89.8828 11.16 89.1688 11.3C89.0148 11.342 88.9728 11.37 88.9728 11.524V12.672C88.9728 12.84 89.0148 12.882 89.1688 12.882H91.7028C92.5848 12.882 93.0188 13.204 93.0188 13.848V14.352H91.2408C90.2468 14.352 89.5188 14.506 89.0568 14.828C88.6088 15.15 88.3848 15.752 88.3708 16.648C88.3848 17.726 88.6228 18.356 89.2248 18.692C89.8408 19.014 90.4288 19.07 91.6048 19.07C92.8648 19.07 93.9288 18.972 94.7828 18.776C94.9928 18.706 95.0908 18.566 95.0908 18.342V13.498C95.0908 12.672 94.8528 12.07 94.3768 11.678C93.9008 11.286 93.0048 11.09 91.7028 11.09ZM93.0188 17.25C92.6828 17.348 92.2208 17.39 91.6188 17.39C90.7228 17.39 90.4288 17.194 90.4288 16.536C90.4288 15.92 90.6808 15.696 91.4088 15.696H93.0188V17.25ZM96.9309 8.164C96.7909 8.164 96.7209 8.234 96.7209 8.374V18.776C96.7209 18.93 96.7909 19 96.9309 19H98.5829C98.7229 19 98.7929 18.93 98.7929 18.776V8.374C98.7929 8.234 98.7229 8.164 98.5829 8.164H96.9309ZM100.677 8.164C100.537 8.164 100.467 8.234 100.467 8.374V18.776C100.467 18.93 100.537 19 100.677 19H102.329C102.469 19 102.539 18.93 102.539 18.776V8.374C102.539 8.234 102.469 8.164 102.329 8.164H100.677ZM107.489 11.09C106.075 11.09 105.137 11.356 104.675 11.888C104.213 12.406 103.975 13.47 103.975 15.08C103.975 16.676 104.213 17.74 104.675 18.272C105.137 18.804 106.075 19.07 107.489 19.07C108.651 19.07 109.533 19 110.163 18.874C110.289 18.86 110.359 18.776 110.359 18.65V17.488C110.359 17.348 110.289 17.278 110.149 17.278H107.671C107.041 17.278 106.621 17.18 106.411 16.998C106.201 16.816 106.103 16.41 106.089 15.794H110.485C110.835 15.794 110.933 15.696 110.933 15.416V14.982C110.919 13.428 110.695 12.392 110.233 11.874C109.785 11.356 108.875 11.09 107.489 11.09ZM107.489 12.882C108.511 12.882 108.833 13.218 108.847 14.436H106.075C106.089 13.218 106.425 12.882 107.489 12.882ZM112.829 9.424C112.703 9.452 112.633 9.522 112.633 9.648V11.202H111.807C111.653 11.202 111.583 11.272 111.583 11.412V12.532C111.583 12.672 111.653 12.742 111.807 12.742H112.633V17.264C112.689 18.328 112.955 18.762 113.613 18.944C114.075 19.07 114.327 19.07 114.929 19.07C115.307 19.07 115.699 19.028 116.119 18.944C116.273 18.916 116.343 18.832 116.343 18.678V17.488C116.343 17.348 116.259 17.278 116.105 17.278H115.531C114.901 17.278 114.705 17.138 114.705 16.564V12.742H115.993C116.147 12.742 116.231 12.672 116.231 12.532V11.412C116.231 11.272 116.147 11.202 115.993 11.202H114.705V9.2C114.705 9.018 114.635 8.948 114.481 8.99L112.829 9.424Z" fill="url(#paint0_linear)"/>
<rect x="0.5" y="0.5" width="132" height="29" rx="7.5" stroke="url(#paint1_linear)"/>
<defs>
<linearGradient id="paint0_linear" x1="106.368" y1="23" x2="16" y2="23" gradientUnits="userSpaceOnUse">
<stop stop-color="#96CF24"/>
<stop offset="1" stop-color="#5AA62B"/>
</linearGradient>
<linearGradient id="paint1_linear" x1="119" y1="30" x2="0" y2="30" gradientUnits="userSpaceOnUse">
<stop stop-color="#96CF24"/>
<stop offset="1" stop-color="#5AA62B"/>
</linearGradient>
</defs>
</svg>
