<svg width="18" height="17" viewBox="0 0 18 17" fill="none" xmlns="http://www.w3.org/2000/svg">
<path d="M10.6092 7.47447L14.4366 5.034C14.7947 4.80569 15.2445 4.92569 15.4412 5.30203L15.585 5.57715C16.0951 6.55296 16.1036 7.76122 15.6076 8.7917C14.9681 10.1203 13.4826 10.7017 12.2605 10.1015L10.6428 9.30711C9.94849 8.96614 9.92908 7.90813 10.6092 7.47447Z" stroke="white" stroke-width="0.75"/>
<path d="M8.5 10.5856V15.5865C8.5 15.9581 8.19873 16.2594 7.82709 16.2594C6.6147 16.2594 5.49606 15.6071 4.89894 14.552L4.85164 14.4684C4.17007 13.264 4.46187 11.7432 5.54079 10.8766L6.87378 9.80592C7.52823 9.28027 8.5 9.74616 8.5 10.5856Z" stroke="white" stroke-width="0.75"/>
<path d="M10.1092 9.52626L13.9366 11.9667C14.2947 12.195 14.4255 12.6852 14.2287 13.0615L14.0849 13.3367C13.5748 14.3125 12.6316 14.9247 11.5755 14.9656C10.2139 15.0182 9.01527 13.8881 8.87483 12.4192L8.68893 10.4747C8.60914 9.64017 9.42908 9.0926 10.1092 9.52626Z" stroke="white" stroke-width="0.75"/>
<path d="M6.89081 9.64662L3.06338 12.0871C2.70531 12.3154 2.25555 12.1954 2.05881 11.8191L1.91498 11.5439C1.40486 10.5681 1.39636 9.35987 1.89236 8.32939C2.53188 7.00077 4.01741 6.41944 5.23948 7.01957L6.85718 7.81398C7.55151 8.15496 7.57092 9.21296 6.89081 9.64662Z" stroke="white" stroke-width="0.75"/>
<path d="M6.89081 7.47435L3.06338 5.03388C2.70531 4.80557 2.57453 4.3154 2.77127 3.93906L2.91509 3.66394C3.42522 2.68813 4.36844 2.07587 5.4245 2.03503C6.78612 1.98238 7.98473 3.11253 8.12517 4.58142L8.31107 6.52587C8.39086 7.36044 7.57092 7.90801 6.89081 7.47435Z" stroke="white" stroke-width="0.75"/>
<path d="M8.5 6.41406V1.41314C8.5 1.0415 8.80127 0.740234 9.17291 0.740234C10.3853 0.740234 11.5039 1.39252 12.1011 2.44767L12.1484 2.53124C12.8299 3.73561 12.5381 5.25646 11.4592 6.12304L10.1262 7.19371C9.47177 7.71936 8.5 7.25347 8.5 6.41406Z" stroke="white" stroke-width="0.75"/>
</svg>
