<svg width="14" height="17" viewBox="0 0 14 17" fill="none" xmlns="http://www.w3.org/2000/svg">
<path d="M6.99992 11.9434C6.04254 11.9434 5.10607 11.6103 4.36293 11.0054L1.02133 8.28533C-0.331737 7.22324 -0.331547 5.04687 1.02133 3.98494L4.36293 1.26487C5.84514 0.0228448 8.15473 0.0229086 9.63691 1.26487L12.9785 3.98494C13.8324 4.68006 14.1936 5.81667 13.8986 6.88061C13.8044 7.2202 13.4538 7.41903 13.115 7.32453C12.7764 7.2301 12.5782 6.87822 12.6724 6.53859C12.8316 5.9643 12.637 5.35101 12.1765 4.97615L8.83487 2.25604C7.77164 1.39057 6.2282 1.39057 5.16497 2.25604L1.82337 4.97615C1.09384 5.54882 1.09394 6.72158 1.82337 7.29415L5.16497 10.0142C6.22636 10.8782 7.76635 10.8797 8.82943 10.0186L9.38762 9.54244C9.6553 9.31407 10.0569 9.34653 10.2846 9.61508C10.5123 9.8836 10.4799 10.2864 10.2122 10.5148L9.64817 10.996C9.64445 10.9992 9.6407 11.0023 9.63691 11.0054C8.8938 11.6103 7.95729 11.9434 6.99992 11.9434ZM9.63691 15.7286L12.9785 13.0086C14.3316 11.9465 14.3314 9.77012 12.9785 8.70819L9.63691 5.98811C8.15469 4.74609 5.84511 4.74615 4.36293 5.98811L3.89183 6.37567C3.26027 6.93876 4.02553 7.87354 4.6989 7.3627L5.16602 6.97846C6.22928 6.11391 7.77202 6.11417 8.83487 6.97932L12.1765 9.6994C12.906 10.2721 12.9059 11.4448 12.1765 12.0174L8.83487 14.7375C7.77164 15.6029 6.2282 15.6029 5.16497 14.7375L1.82337 12.0174C1.40146 11.6739 1.19967 11.1267 1.29675 10.5892C1.3594 10.2423 1.12983 9.91022 0.784028 9.84738C0.43842 9.78464 0.107098 10.0148 0.0444162 10.3616C-0.13542 11.3574 0.238889 12.3716 1.02133 13.0086L4.36293 15.7286C5.10604 16.3335 6.04254 16.6667 6.99992 16.6667C7.95729 16.6667 8.8938 16.3336 9.63691 15.7286Z" fill="white"/>
</svg>
