<svg width="21" height="14" viewBox="0 0 21 14" fill="none" xmlns="http://www.w3.org/2000/svg">
<path d="M19.8516 3.01984C19.8516 3.01984 19.6562 1.64789 19.0547 1.04548C18.293 0.252625 17.4414 0.248738 17.0508 0.2021C14.2539 -1.11195e-07 10.0547 0 10.0547 0H10.0469C10.0469 0 5.84766 -1.11195e-07 3.05078 0.2021C2.66016 0.248738 1.80859 0.252625 1.04688 1.04548C0.445313 1.64789 0.253906 3.01984 0.253906 3.01984C0.253906 3.01984 0.0507812 4.63275 0.0507812 6.24177V7.74975C0.0507812 9.35877 0.25 10.9717 0.25 10.9717C0.25 10.9717 0.445312 12.3436 1.04297 12.946C1.80469 13.7389 2.80469 13.7117 3.25 13.7972C4.85156 13.9488 10.0508 13.9954 10.0508 13.9954C10.0508 13.9954 14.2539 13.9876 17.0508 13.7894C17.4414 13.7428 18.293 13.7389 19.0547 12.946C19.6562 12.3436 19.8516 10.9717 19.8516 10.9717C19.8516 10.9717 20.0508 9.36266 20.0508 7.74975V6.24177C20.0508 4.63275 19.8516 3.01984 19.8516 3.01984ZM7.98438 9.58031V3.98758L13.3867 6.79366L7.98438 9.58031Z" fill="#9CA3AF"/>
</svg>
