<svg xmlns="http://www.w3.org/2000/svg" viewBox="0 0 47.45 46.54"><defs><style>.cls-1{fill:#a16653;}.cls-2{fill:#f4dcb5;}.cls-3,.cls-7{fill:#504040;}.cls-4{fill:#e6656f;}.cls-5{fill:#5f5461;}.cls-6{fill:#fff;}.cls-7{opacity:0.35;isolation:isolate;}</style></defs><g id="Layer_2" data-name="Layer 2"><g id="Layer_1-2" data-name="Layer 1"><path class="cls-1" d="M6.36,16.9a15.88,15.88,0,0,0-.59,4.27v.3a22,22,0,0,1-.58,5.18,5.45,5.45,0,0,1-2.43-1.86c-2.07-2.63-1.38-6.85,1.18-7.85a3.22,3.22,0,0,1,2.42-.05Z"/><path class="cls-2" d="M6.36,16.9a15.88,15.88,0,0,0-.59,4.27v.3a22,22,0,0,1-.58,5.18,5.45,5.45,0,0,1-2.43-1.86c-2.07-2.63-1.38-6.85,1.18-7.85a3.22,3.22,0,0,1,2.42-.05Z"/><path class="cls-1" d="M44.69,24.8a5.51,5.51,0,0,1-2.42,1.86,21.55,21.55,0,0,1-.58-5.18v-.3a16,16,0,0,0-.59-4.29,3.22,3.22,0,0,1,2.42.05C46.08,17.94,46.77,22.16,44.69,24.8Z"/><path class="cls-2" d="M44.69,24.8a5.51,5.51,0,0,1-2.42,1.86,21.55,21.55,0,0,1-.58-5.18v-.3a16,16,0,0,0-.59-4.29,3.22,3.22,0,0,1,2.42.05C46.08,17.94,46.77,22.16,44.69,24.8Z"/><path class="cls-1" d="M36.7,26.72a4.68,4.68,0,0,0-.51,4,10.45,10.45,0,0,1,.64,3c0,6.19-5.86,11.21-13.11,11.21s-13.1-5-13.1-11.21a10.13,10.13,0,0,1,.66-3,4.65,4.65,0,0,0-.52-4,7.22,7.22,0,0,1-1.13-3.86,7.64,7.64,0,0,1,7.83-7.44,8,8,0,0,1,4,1,4.64,4.64,0,0,0,4.59,0,8.07,8.07,0,0,1,4-1,7.65,7.65,0,0,1,7.83,7.44,7.15,7.15,0,0,1-.66,3A8.4,8.4,0,0,1,36.7,26.72Z"/><path class="cls-2" d="M36.7,26.72a4.68,4.68,0,0,0-.51,4,10.45,10.45,0,0,1,.64,3c0,6.19-5.86,11.21-13.11,11.21s-13.1-5-13.1-11.21a10.13,10.13,0,0,1,.66-3,4.65,4.65,0,0,0-.52-4,7.22,7.22,0,0,1-1.13-3.86,7.64,7.64,0,0,1,7.83-7.44,8,8,0,0,1,4,1,4.64,4.64,0,0,0,4.59,0,8.07,8.07,0,0,1,4-1,7.65,7.65,0,0,1,7.83,7.44,7.15,7.15,0,0,1-.66,3A8.4,8.4,0,0,1,36.7,26.72Z"/><path class="cls-3" d="M17.05,35.08a.76.76,0,0,0-.76.75.22.22,0,0,0,0,.11,7.25,7.25,0,0,0,7.41,5.89c3.81,0,7-2.57,7.42-5.89a.73.73,0,0,0-.65-.84l-.1,0Z"/><path class="cls-4" d="M19.42,40.58a8.17,8.17,0,0,0,8.62,0c-.54-1.88-2.28-1.45-4.32-1.45S20,38.7,19.42,40.58Z"/><path class="cls-1" d="M44.4,15.56a4.08,4.08,0,0,0-3.65.21A19.31,19.31,0,0,0,40,13.94c-.2-.43-.42-.86-.65-1.3A20.28,20.28,0,0,0,28.44,3.17L28.34.71l-3,1.79-.36,0-.66,0L23.93.55,23.8,0h-.43A5.75,5.75,0,0,0,19,3.17,20.21,20.21,0,0,0,8.08,12.64c-.23.42-.45.85-.65,1.3s-.51,1.21-.74,1.83l-.11-.06A4.15,4.15,0,0,0,3,15.56c-3.24,1.26-4.13,6.64-1.48,10A6.79,6.79,0,0,0,4.86,28l0,.19a12.63,12.63,0,0,0-.29,2.74c0,6.39,4.71,11.9,11.47,14.31a21.78,21.78,0,0,0,4.91,1.15,20.83,20.83,0,0,0,2.62.17h.21c10.6,0,19.19-7,19.19-15.63a12.63,12.63,0,0,0-.29-2.74,1.29,1.29,0,0,0,0-.19,6.81,6.81,0,0,0,3.3-2.44C48.54,22.2,47.66,16.82,44.4,15.56Zm-38,1.34a15.88,15.88,0,0,0-.59,4.27v.3a22,22,0,0,1-.58,5.18,5.45,5.45,0,0,1-2.43-1.86c-2.07-2.63-1.38-6.85,1.18-7.85a3.22,3.22,0,0,1,2.42-.05Zm30.82,8.92a6.9,6.9,0,0,1-.48.89,4.68,4.68,0,0,0-.51,4,10.46,10.46,0,0,1,.64,3c0,6.2-5.86,11.21-13.11,11.21s-13.1-5-13.1-11.19a10.13,10.13,0,0,1,.66-3,4.65,4.65,0,0,0-.52-4,7.22,7.22,0,0,1-1.13-3.86,7.64,7.64,0,0,1,7.83-7.44,8,8,0,0,1,4,1,4.64,4.64,0,0,0,4.59,0,8.07,8.07,0,0,1,4-1,7.65,7.65,0,0,1,7.83,7.44A7.06,7.06,0,0,1,37.18,25.82Zm7.51-1a5.51,5.51,0,0,1-2.42,1.86,21.55,21.55,0,0,1-.58-5.18v-.3a16,16,0,0,0-.59-4.29,3.22,3.22,0,0,1,2.42.05C46.08,17.94,46.77,22.16,44.69,24.8Z"/><path class="cls-3" d="M20.46,29.51v0a.61.61,0,0,1,.8-.3l1.5.68a.61.61,0,0,1,.3.8v0a.62.62,0,0,1-.81.3l-1.49-.68A.6.6,0,0,1,20.46,29.51Z"/><path class="cls-3" d="M24.4,30.7v0a.61.61,0,0,1,.3-.8l1.49-.68a.61.61,0,0,1,.81.31v0a.62.62,0,0,1-.3.81L25.2,31A.6.6,0,0,1,24.4,30.7Z"/><path class="cls-3" d="M17,25.82h0a2.19,2.19,0,0,1-2.24-2.12V23A2.18,2.18,0,0,1,17,20.87h0A2.18,2.18,0,0,1,19.23,23v.71A2.17,2.17,0,0,1,17,25.82Z"/><path class="cls-5" d="M17,20.87v2.48a1.13,1.13,0,0,0,2.25,0V23A2.19,2.19,0,0,0,17,20.87Z"/><ellipse class="cls-6" cx="16.99" cy="22.28" rx="0.75" ry="0.71"/><path class="cls-3" d="M30.46,25.82h0a2.18,2.18,0,0,1-2.23-2.12V23a2.17,2.17,0,0,1,2.23-2.12h0A2.18,2.18,0,0,1,32.7,23v.71A2.17,2.17,0,0,1,30.46,25.82Z"/><path class="cls-5" d="M30.46,20.87v2.48a1.13,1.13,0,0,0,2.26,0V23A2.21,2.21,0,0,0,30.46,20.87Z"/><ellipse class="cls-6" cx="30.46" cy="22.28" rx="0.75" ry="0.71"/><path class="cls-7" d="M23.93.55c-.5-.05-1.59.73-2.91,2.11-.33.34-.68.72-1,1.13a30.86,30.86,0,0,0-6.6,12.7C11.67,24.72,11,34.26,14,39.55a19.81,19.81,0,0,0,6.89,6.84A22.49,22.49,0,0,1,16,45.23C9.24,42.81,4.52,37.3,4.52,30.91a13.29,13.29,0,0,1,.3-2.74l0-.19a6.78,6.78,0,0,1-3.3-2.44C-1.09,22.2-.21,16.82,3,15.56a4.14,4.14,0,0,1,3.54.15l.11.06a17.07,17.07,0,0,1,.74-1.83c.2-.43.42-.86.65-1.3A20.17,20.17,0,0,1,19,3.17,5.71,5.71,0,0,1,23.37,0h.43Z"/></g></g></svg>