<svg width="24" height="24" viewBox="0 0 24 24" fill="none" xmlns="http://www.w3.org/2000/svg">
<path d="M7 11C6.44772 11 6 11.4477 6 12C6 12.5523 6.44772 13 7 13V11ZM21 13C21.5523 13 22 12.5523 22 12C22 11.4477 21.5523 11 21 11V13ZM7 13H21V11H7V13Z" fill="url(#paint0_linear_1230:52273)"/>
<path d="M2.28481 11.7966L7.73501 7.90356C8.2645 7.52535 9 7.90385 9 8.55455V15.4454C9 16.0961 8.2645 16.4746 7.73501 16.0964L2.28481 12.2034C2.14522 12.1037 2.14522 11.8963 2.28481 11.7966Z" fill="url(#paint1_linear_1230:52273)"/>
<defs>
<linearGradient id="paint0_linear_1230:52273" x1="19.5263" y1="13" x2="7" y2="13" gradientUnits="userSpaceOnUse">
<stop stop-color="#88BB22"/>
<stop offset="1" stop-color="#5AA62B"/>
</linearGradient>
<linearGradient id="paint1_linear_1230:52273" x1="8.26316" y1="17" x2="2" y2="17" gradientUnits="userSpaceOnUse">
<stop stop-color="#88BB22"/>
<stop offset="1" stop-color="#5AA62B"/>
</linearGradient>
</defs>
</svg>
