<svg xmlns="http://www.w3.org/2000/svg" xmlns:xlink="http://www.w3.org/1999/xlink" viewBox="0 0 43.59 44.02"><defs><style>.cls-1{fill:#fff;}.cls-2{fill:#fbad55;fill-rule:evenodd;}.cls-3,.cls-4{stroke:#ad5729;stroke-width:1.07px;}.cls-3{fill:url(#radial-gradient);}.cls-4,.cls-5{fill:#ad5729;}</style><radialGradient id="radial-gradient" cx="437.62" cy="275.12" r="1.55" gradientTransform="matrix(0, 14.38, 14.24, 0, -3894.73, -6271.27)" gradientUnits="userSpaceOnUse"><stop offset="0.33" stop-color="#f7b451"/><stop offset="0.65" stop-color="#feca78"/><stop offset="1" stop-color="#f8991d"/></radialGradient></defs><g id="Layer_2" data-name="Layer 2"><g id="Layer_1-2" data-name="Layer 1"><path class="cls-1" d="M33.14,21.22a.66.66,0,0,1,.8.48l.57,2.37a.66.66,0,1,1-1.28.32L32.66,22A.65.65,0,0,1,33.14,21.22ZM15.36,3.88A.67.67,0,0,1,15.55,3l2-1.34a.66.66,0,0,1,.91.19.68.68,0,0,1-.18.92l-2,1.34A.67.67,0,0,1,15.36,3.88Z"/><path class="cls-2" d="M25.82,12.17a8.85,8.85,0,0,0-6.92,1.3A8.87,8.87,0,0,1,28,15.65a9.1,9.1,0,0,1,0,12.74,8.52,8.52,0,0,1-1.36,1.12,9,9,0,0,0,5.65-11.38A12.37,12.37,0,0,1,25.82,12.17Z"/><path class="cls-3" d="M40.44,32.32h0A21.14,21.14,0,0,1,11.6,40.85,21.58,21.58,0,0,1,3.15,11.7,21.18,21.18,0,0,1,20.92.55,2.37,2.37,0,0,1,23.13,1.9a5.75,5.75,0,0,1,.63,3.35,13,13,0,0,0-.07,1.4,13.19,13.19,0,0,0,1.51,6.14,9.73,9.73,0,0,0-12,4.5,9.9,9.9,0,0,0,3.88,13.36,9.72,9.72,0,0,0,13.24-3.92h0a9.88,9.88,0,0,0,.5-8.36,13.16,13.16,0,0,0,6,1.45,13,13,0,0,0,3.5-.48,2.61,2.61,0,0,1,1.84.17A1.4,1.4,0,0,1,43,20.67,21.64,21.64,0,0,1,40.44,32.32Z"/><path class="cls-4" d="M35,28l.78-.27h0a4.83,4.83,0,0,1-.69,4l0,.09a7.26,7.26,0,0,0-.69,1.61,3.59,3.59,0,0,0,.07,2.08,1.84,1.84,0,0,0,1.32,1.12A3.1,3.1,0,0,0,37.89,36a21.59,21.59,0,0,0,5-15.27,1.38,1.38,0,0,0-.81-1.17,2.64,2.64,0,0,0-1.83-.17,13,13,0,0,1-3.44.46,13.11,13.11,0,0,1-6.08-1.49,9.85,9.85,0,0,1-.35,8.19,9.38,9.38,0,0,1-.73,1.2,9.17,9.17,0,0,0,2.1-1A2.18,2.18,0,0,1,35,28Zm0,0c.43,1.24-.13,2.32-.7,3.4a7.66,7.66,0,0,0-.76,1.81ZM20,12.33H20a6.76,6.76,0,0,1-5-.4,6.4,6.4,0,0,1-2.83-3.16,6.69,6.69,0,0,1-.49-4,3.5,3.5,0,0,1,1.85-2.6A21.07,21.07,0,0,1,21.56.54,2,2,0,0,1,23.4,1.73a4.54,4.54,0,0,1,.46,2.82,13.32,13.32,0,0,0-.17,2.1,13.17,13.17,0,0,0,1.54,6.19A9.67,9.67,0,0,0,20,12.33Z"/><circle class="cls-5" cx="5.68" cy="17.04" r="1.11"/><circle class="cls-5" cx="21.75" cy="36.44" r="1.11"/><circle class="cls-5" cx="14.96" cy="37.41" r="1.8"/></g></g></svg>