<svg width="26" height="36" viewBox="0 0 26 36" fill="none" xmlns="http://www.w3.org/2000/svg"><path fill-rule="evenodd" clip-rule="evenodd" d="M21.9714 1.85928C22.8043 4.07598 20.1793 6.3737 18.9672 5.92323C18.4649 5.73526 17.9626 5.50841 17.5251 5.55054C17.2705 5.59678 17.0245 5.68204 16.7959 5.80332L17.4797 6.71398C17.4797 6.71398 19.0094 7.61816 19.8779 8.15613C19.9867 8.22491 20.1178 8.24927 20.2441 8.22419C22.9372 7.61816 23.7215 3.25282 21.9714 1.85928Z" fill="#6772E5"></path><path fill-rule="evenodd" clip-rule="evenodd" d="M25.5232 26.3726C18.1796 24.9466 10.6545 16.9743 15.0976 16.4946C17.8069 16.2095 18.0143 12.9298 21.9032 14.6831C22.0127 14.7323 22.131 14.759 22.251 14.7615C22.371 14.7639 22.4903 14.7421 22.6017 14.6973C22.7131 14.6525 22.8143 14.5856 22.8992 14.5008C22.9841 14.4159 23.051 14.3148 23.0958 14.2034L23.9449 12.2006C24.1394 11.64 24.1037 10.7844 23.6954 10.3728C23.2125 9.88345 22.1139 10.0066 21.6148 9.72465C20.4449 9.02788 17.4536 7.13202 17.2527 7.01211C17.0518 6.8922 16.5916 5.99775 16.3906 5.89404C16.0828 5.72535 15.7566 5.59268 15.4184 5.49867C14.9218 5.39475 14.406 5.43409 13.9309 5.61209C12.1193 6.16303 5.16133 8.16259 8.08452 0.666656C8.08452 0.666656 1.43767 6.50007 7.76044 9.52696C7.81704 9.54997 7.86598 9.58851 7.90162 9.63813C7.93726 9.68775 7.95814 9.74643 7.96187 9.80741C7.9656 9.86839 7.95201 9.92918 7.92268 9.98277C7.89335 10.0364 7.84946 10.0806 7.79609 10.1103C5.79005 11.3386 -1.37533 16.2159 1.37934 26.7679C3.2914 30.3587 8.50906 33.2884 15.5027 35.3333C17.9624 34.3935 24.2593 29.1791 25.5232 26.3726Z" fill="#6772E5"></path><path opacity="0.2" fill-rule="evenodd" clip-rule="evenodd" d="M15.0944 16.4947C17.8037 16.2095 18.0111 12.9298 21.9001 14.6831C22.0095 14.7324 22.1278 14.759 22.2479 14.7615C22.3679 14.7639 22.4872 14.7421 22.5985 14.6973C22.7099 14.6525 22.8111 14.5857 22.896 14.5008C22.9809 14.4159 23.0478 14.3148 23.0927 14.2034L23.9418 12.2006C24.1362 11.64 24.1006 10.7844 23.6922 10.3728C23.4297 10.1038 22.9793 10.0196 22.4996 9.9418C24.564 10.739 22.6941 13.5747 22.0783 13.552C21.3491 13.5261 20.0982 11.977 18.588 11.9316C17.0778 11.8863 16.2028 14.5761 14.187 14.7641C11.0953 15.0525 10.8976 10.9626 9.00175 12.7483C7.10589 14.534 1.14285 27.3869 15.4833 35.3171C17.9496 34.3741 24.2334 29.1597 25.5006 26.3564C18.1764 24.9466 10.6513 16.9646 15.0944 16.4947Z" fill="#224099"></path><g opacity="0.2"><path opacity="0.2" fill-rule="evenodd" clip-rule="evenodd" d="M25.5199 26.3725C18.6365 25.0308 11.5845 17.9465 14.4008 16.6664C12.8873 17.3145 10.9558 19.8456 10.9558 24.0845C10.9558 28.573 13.8725 33.2689 15.4929 35.3301C17.8392 34.4324 23.6856 29.6328 25.306 26.7614C25.4356 26.5151 25.5069 26.3693 25.5069 26.3693L25.5199 26.3725Z" fill="#224099"></path></g></svg>