<svg width="104" height="28" viewBox="0 0 104 28" fill="none" xmlns="http://www.w3.org/2000/svg">
<path d="M12.6873 24.5239C18.9603 24.5239 24.0455 19.4431 24.0455 13.1755C24.0455 6.90799 18.9603 1.82715 12.6873 1.82715C6.41435 1.82715 1.3291 6.90799 1.3291 13.1755C1.3291 19.4431 6.41435 24.5239 12.6873 24.5239Z" fill="white"/>
<path d="M28.9561 13.5997H37.5387V10.8045H32.2238V1.0604H28.9561V13.5997ZM51.7709 13.5997L46.515 1.0604H43.1489L37.7651 13.5997H41.1312L42.0072 11.3852H47.4205L48.2768 13.5997H51.7709ZM44.7434 4.40684L46.456 8.87533H42.9816L44.7434 4.40684ZM55.5996 8.43242V1.0604H52.3319V8.43242C52.3319 9.51509 52.5681 10.4698 53.0406 11.2867C53.5032 12.0938 54.202 12.7533 55.0386 13.1666C55.9047 13.6096 56.9087 13.8261 58.0504 13.8261C59.1921 13.8261 60.1961 13.6096 61.0425 13.1666C61.8693 12.7434 62.5583 12.0938 63.011 11.2769C63.4736 10.46 63.7 9.50525 63.7 8.42257V1.0604H60.4224V8.43242C60.4224 9.22966 60.2059 9.86942 59.7728 10.332C59.3398 10.8045 58.7689 11.0407 58.0701 11.0407C57.3516 11.0407 56.761 10.8045 56.2984 10.3222C55.8358 9.84973 55.5996 9.21981 55.5996 8.43242ZM74.5267 8.60958L68.8181 1.0604H65.9342V13.5997H68.9952V6.09975L74.6842 13.5899H77.5483V1.0604H74.507L74.5267 8.60958ZM89.064 5.31235L90.9636 3.0289C90.314 2.34977 89.5266 1.80843 88.6506 1.44426C86.6625 0.587965 84.3889 0.676547 82.4696 1.70016C80.4125 2.80252 79.1527 4.96787 79.192 7.30053C79.1723 8.46194 79.4676 9.61351 80.0483 10.6273C80.6093 11.6017 81.4263 12.4186 82.4105 12.9698C84.3003 14.0328 86.5837 14.1115 88.5522 13.1962C89.4676 12.7926 90.2845 12.2119 90.9735 11.4934L89.064 9.42651C88.631 9.86942 88.1192 10.2336 87.5581 10.4993C87.0562 10.7454 86.505 10.8832 85.9538 10.893C85.3436 10.9029 84.7432 10.7356 84.2215 10.4206C83.6999 10.1056 83.2865 9.65288 83.0011 9.11155C82.6959 8.54068 82.5483 7.90092 82.5582 7.26116C82.5483 6.61156 82.7058 5.98164 83.0011 5.41078C83.2865 4.86944 83.6999 4.42653 84.2215 4.11157C84.7432 3.79661 85.3436 3.62929 85.944 3.63913C86.5247 3.64897 87.0955 3.80645 87.6073 4.09188C88.1684 4.397 88.6703 4.81039 89.064 5.31235ZM92.3711 13.5997H95.6486V8.78674H100.708V13.5997H103.985V1.0604H100.708V6.17849H95.6486V1.0604H92.3711V13.5997ZM29.1135 17.5662H34.8222L28.9561 24.7611V25.4304H35.9737V24.6627H30.0683L35.9245 17.4481V16.8084H29.1234V17.5662H29.1135ZM41.5446 16.7296C40.7473 16.7198 39.9698 16.9265 39.2808 17.3202C38.6115 17.6942 38.0407 18.2454 37.647 18.9048C37.2434 19.5643 37.0367 20.3221 37.0367 21.0997C37.0269 21.8772 37.2434 22.6449 37.6371 23.3142C38.9265 25.4697 41.7217 26.1685 43.8772 24.8693C44.517 24.4855 45.0485 23.954 45.4324 23.3142C45.8359 22.6449 46.0426 21.8772 46.0426 21.0997C46.0524 20.3221 45.8359 19.5643 45.4324 18.9048C45.0387 18.2454 44.4678 17.6942 43.7985 17.3202C43.1194 16.9265 42.3418 16.7198 41.5446 16.7296ZM41.5643 17.4973C42.204 17.4973 42.8241 17.6548 43.3753 17.9796C43.9265 18.2946 44.3792 18.7473 44.704 19.2887C45.0288 19.8398 45.206 20.4698 45.1961 21.0997C45.1961 21.7394 45.0288 22.3694 44.704 22.9304C44.3891 23.4816 43.9265 23.9343 43.3753 24.2591C42.8241 24.5839 42.204 24.7512 41.5643 24.7414C40.9245 24.7414 40.2946 24.5741 39.7336 24.2591C39.1824 23.9441 38.7198 23.4816 38.4048 22.9304C38.08 22.3792 37.9127 21.7493 37.9127 21.0997C37.9029 20.4599 38.08 19.83 38.4048 19.2887C39.0643 18.1765 40.2651 17.4973 41.5643 17.4973ZM54.1922 24.1115L48.8378 16.8084H47.9323V25.4402H48.7886V18.1272L54.1331 25.4402H55.0386V16.8084H54.202V24.1115H54.1922ZM57.765 25.4402H63.7V24.6725H58.6114V21.4245H63.0208V20.6568H58.6114V17.5662H63.5425V16.8084H57.765V25.4402Z" fill="url(#paint0_linear)"/>
<path d="M78.4007 18.047C78.0168 17.9289 77.6133 17.86 77.2097 17.86C76.7078 17.86 76.3042 17.9584 76.009 18.1455C75.7235 18.3128 75.5562 18.608 75.5562 18.9427C75.5464 19.2183 75.6448 19.484 75.8318 19.6907C76.0188 19.8876 76.2452 20.045 76.5011 20.1435C76.7668 20.2517 77.131 20.3797 77.5936 20.5273C78.0759 20.675 78.5483 20.8423 79.0109 21.0391C79.3751 21.2065 79.69 21.4525 79.9361 21.7675C80.192 22.0923 80.32 22.5155 80.32 23.0568C80.3298 23.5194 80.192 23.9722 79.9164 24.3462C79.631 24.7301 79.2471 25.0253 78.7944 25.2025C78.2727 25.4092 77.7019 25.5175 77.1409 25.5076C76.5109 25.5076 75.881 25.3797 75.2905 25.1336C74.7196 24.9072 74.1881 24.5726 73.7354 24.1494L74.2668 23.1257C74.6605 23.5194 75.133 23.8344 75.6546 24.0509C76.1271 24.2576 76.6389 24.3659 77.1507 24.3757C77.7216 24.3757 78.1743 24.2675 78.509 24.0411C78.8239 23.8442 79.0109 23.4998 79.0109 23.1257C79.0208 22.8502 78.9223 22.5844 78.7353 22.3777C78.5483 22.171 78.3121 22.0135 78.0562 21.9053C77.692 21.7576 77.318 21.6297 76.944 21.5214C76.4617 21.3836 75.9991 21.2163 75.5365 21.0195C75.1724 20.8521 74.8574 20.6061 74.6212 20.2911C74.3751 19.9761 74.2472 19.5529 74.2472 19.0313C74.2373 18.5982 74.3751 18.1651 74.631 17.8108C74.9066 17.4466 75.2708 17.1612 75.694 16.9939C76.2058 16.797 76.7471 16.6986 77.2983 16.7183C77.8101 16.7183 78.3219 16.797 78.8141 16.9447C79.2865 17.0825 79.7294 17.2892 80.133 17.5549L79.6408 18.6179C79.257 18.3718 78.8436 18.175 78.4007 18.047Z" fill="white"/>
<path d="M80.1328 18.9238H81.3336L83.1545 24.2978L84.9556 18.9238H86.1466L87.9576 24.2978L89.7587 18.9238H90.9398L88.5383 25.4297H87.3375L85.5363 20.3116L83.7352 25.4297H82.5344L80.1328 18.9238Z" fill="white"/>
<path d="M94.9359 25.4388V24.5235C94.4536 25.1632 93.6957 25.4782 92.6623 25.488C92.2489 25.4979 91.8454 25.4093 91.4714 25.2321C91.1465 25.0747 90.871 24.8286 90.684 24.5136C90.4969 24.2085 90.3985 23.8542 90.4084 23.49C90.3887 22.9487 90.6249 22.4369 91.058 22.1022C91.491 21.7577 92.0914 21.5904 92.8591 21.5806H94.9261V21.2755C94.9261 20.8129 94.7883 20.4585 94.5028 20.2125C94.2174 19.9664 93.804 19.8385 93.2627 19.8385C92.6032 19.8385 91.9339 20.0747 91.2548 20.5373L90.7725 19.7499C91.1761 19.4743 91.6091 19.2577 92.0717 19.0904C92.5343 18.9428 93.0068 18.8739 93.4891 18.8837C94.306 18.8837 94.9261 19.0806 95.369 19.4841C95.8119 19.8778 96.0383 20.4388 96.0481 21.1475L96.0579 25.429H94.9359V25.4388ZM94.2568 24.1495C94.6111 23.9132 94.8572 23.5392 94.9261 23.1258V22.4762H93.0166C92.5048 22.4762 92.121 22.555 91.8651 22.7125C91.619 22.8699 91.491 23.116 91.491 23.4506C91.4812 23.7656 91.619 24.0609 91.8749 24.2479C92.1308 24.4447 92.4753 24.5432 92.8985 24.5432C93.3808 24.553 93.8532 24.4152 94.2568 24.1495Z" fill="white"/>
<path d="M102.495 19.3066C102.968 19.5822 103.352 19.9857 103.608 20.4779C104.129 21.5605 104.129 22.8204 103.618 23.903C103.371 24.3853 102.988 24.7889 102.525 25.0645C102.033 25.34 101.472 25.4877 100.901 25.468C100.399 25.4778 99.8971 25.3597 99.4443 25.1235C99.0309 24.8971 98.6865 24.5526 98.4601 24.1393V27.8203H97.3184V18.9228H98.4601V20.2121C98.6865 19.7987 99.0211 19.4542 99.4345 19.2279C99.8774 18.9916 100.37 18.8735 100.871 18.8834C101.442 18.8834 102.003 19.0212 102.495 19.3066ZM101.777 24.1786C102.112 23.9818 102.377 23.6963 102.555 23.3519C102.742 22.9877 102.84 22.5743 102.83 22.1609C102.84 21.7475 102.742 21.344 102.545 20.9798C102.368 20.6353 102.102 20.3499 101.767 20.1531C101.433 19.9562 101.039 19.8479 100.645 19.8578C100.251 19.8479 99.8577 19.9562 99.5231 20.1531C99.1884 20.3499 98.9227 20.6353 98.7455 20.9798C98.3715 21.7279 98.3715 22.6137 98.7455 23.3617C98.9227 23.6963 99.1983 23.9818 99.5231 24.1786C100.222 24.5723 101.078 24.5723 101.777 24.1786Z" fill="white"/>
<path d="M24.0453 8.39165C21.4075 2.13184 14.193 -0.811059 7.93314 1.82672C1.67333 4.46451 -1.25973 11.679 1.37806 17.9389C4.01584 24.1987 11.2304 27.1317 17.4902 24.4939C23.7402 21.8562 26.6831 14.6515 24.0453 8.39165ZM12.6772 23.4113C7.02763 23.4113 2.44104 18.8247 2.44104 13.1751C2.44104 7.52551 7.02763 2.93892 12.6772 2.93892C18.3268 2.93892 22.9134 7.52551 22.9134 13.1751C22.9134 18.8247 18.3366 23.4113 12.6772 23.4113Z" fill="url(#paint1_linear)"/>
<path d="M14.9412 21.4724L20.9845 15.4291L14.9412 9.37598L12.7168 11.6004L16.5357 15.4291L12.7168 19.248L14.9412 21.4724Z" fill="url(#paint2_linear)"/>
<path d="M10.4426 4.8877L4.40918 10.931L10.4426 16.9743L12.667 14.7597L8.84813 10.931L12.667 7.11209L10.4426 4.8877Z" fill="url(#paint3_linear)"/>
<defs>
<linearGradient id="paint0_linear" x1="38.4534" y1="-10.2581" x2="88.6512" y2="31.8629" gradientUnits="userSpaceOnUse">
<stop stop-color="#328B31"/>
<stop offset="1" stop-color="#96CF24"/>
</linearGradient>
<linearGradient id="paint1_linear" x1="4.43627" y1="22.5734" x2="20.8084" y2="3.94964" gradientUnits="userSpaceOnUse">
<stop stop-color="#328B31"/>
<stop offset="1" stop-color="#96CF24"/>
</linearGradient>
<linearGradient id="paint2_linear" x1="6.94966" y1="24.7796" x2="23.3188" y2="6.15588" gradientUnits="userSpaceOnUse">
<stop stop-color="#328B31"/>
<stop offset="1" stop-color="#96CF24"/>
</linearGradient>
<linearGradient id="paint3_linear" x1="1.92581" y1="20.3642" x2="18.298" y2="1.74046" gradientUnits="userSpaceOnUse">
<stop stop-color="#328B31"/>
<stop offset="1" stop-color="#96CF24"/>
</linearGradient>
</defs>
</svg>
