<svg xmlns="http://www.w3.org/2000/svg" viewBox="0 0 44.36 50.19"><defs><style>.cls-1,.cls-4{fill:#623312;}.cls-1,.cls-3{fill-rule:evenodd;}.cls-2{fill:#fddc90;}.cls-3{fill:#d1884e;}</style></defs><g id="Layer_2" data-name="Layer 2"><g id="Layer_1-2" data-name="Layer 1"><path class="cls-1" d="M8,7A5.86,5.86,0,1,1,19.59,5.88v7.27c.84,0,1.68-.14,2.52-.14a13.58,13.58,0,0,1,2.38.14V5.88A5.91,5.91,0,0,1,30.36,0a6.05,6.05,0,0,1,5.88,7L34.7,15.53c5.46,2.38,9.66,6.58,9.66,11.76V30.5c0,4.34-2.8,8-6.86,10.36a29.18,29.18,0,0,1-15.39,3.92A29.16,29.16,0,0,1,6.72,40.86C2.8,38.48,0,34.84,0,30.5V27.29c0-5.18,4.06-9.38,9.52-11.76ZM32.6,16.65,34.42,6.58a4.14,4.14,0,0,0-4.06-4.9,4.06,4.06,0,0,0-4.05,4.06V15a8,8,0,0,0-1.82-.14c-.84,0-1.54-.14-2.38-.14a15.22,15.22,0,0,0-2.52.14c-.56,0-1.26.14-1.82.14V5.88a4,4,0,1,0-8,.84l1.81,10.07C5.74,19,1.82,23,1.82,27.43v3.21c0,6.86,9.09,12.46,20.29,12.46S42.4,37.5,42.4,30.64V27.43C42.54,22.81,38.62,18.89,32.6,16.65Z"/><path class="cls-2" d="M42.54,30.5c0,6.86-9.1,12.46-20.29,12.46S2,37.36,2,30.5V27.29H42.68V30.5Z"/><path class="cls-3" d="M9.8,6.72a4,4,0,1,1,8-.84v9.23a42.4,42.4,0,0,1,4.34-.28c1.4,0,2.8.14,4.2.28V5.88a4.06,4.06,0,0,1,4.05-4.06,4.21,4.21,0,0,1,4.06,4.9L32.6,16.79C38.48,19,42.54,23,42.54,27.43c0,6.85-9.1,12.45-20.29,12.45S2,34.28,2,27.43C2,23,5.88,19,11.75,16.79Z"/><path class="cls-4" d="M16.51,26.45c0,1.82-1,3.36-2.24,3.36S12,28.27,12,26.45s1-3.36,2.24-3.36S16.51,24.63,16.51,26.45Z"/><path class="cls-4" d="M32,26.45c0,1.82-1,3.36-2.23,3.36s-2.24-1.54-2.24-3.36,1-3.36,2.24-3.36S32,24.63,32,26.45Z"/><path class="cls-4" d="M32.4,34a5,5,0,0,1,2.88.88,3.28,3.28,0,0,1,1.46,2.82V38a6.93,6.93,0,0,1-.84,3.16,15.48,15.48,0,0,1-2,2.89c-.44.52-1.25,1.41-2.43,2.66l-.12.1h3.26A.75.75,0,0,1,35,47a.65.65,0,0,1,.24.43v.16a2.94,2.94,0,0,1-.11.72c-.18.44-.29.71-.34.81a5.3,5.3,0,0,1-.35.64.65.65,0,0,1-.49.37l-1.64,0-1.28,0-1.67,0-1.68,0a1.23,1.23,0,0,1-.82-.35,4.61,4.61,0,0,1-.6-.7,2.46,2.46,0,0,1-.39-.84l0-.39a1,1,0,0,1,.31-.81,36.72,36.72,0,0,0,3.73-4c.55-.71,1-1.38,1.46-2s.85-1.35,1.29-2.12l.08-.43a.83.83,0,0,0-.19-.56.73.73,0,0,0-.53-.22,1.23,1.23,0,0,0-.65.22,2.8,2.8,0,0,0-.73.73,1.15,1.15,0,0,1-.36.32,1.5,1.5,0,0,1-.45.19l-1,0A7.67,7.67,0,0,1,27.55,39a.51.51,0,0,1-.35-.28,1.16,1.16,0,0,1-.17-.54l0-.29a4.26,4.26,0,0,1,2-2.93A5.92,5.92,0,0,1,32.4,34Z"/></g></g></svg>