<svg width="12" height="14" viewBox="0 0 12 14" fill="none" xmlns="http://www.w3.org/2000/svg">
<path d="M5.99993 9.95151C5.17932 9.95151 4.37663 9.66598 3.73965 9.14747L0.875424 6.81598C-0.284346 5.90561 -0.284183 4.04016 0.875424 3.12993L3.73965 0.798437C5.01012 -0.266153 6.98976 -0.266098 8.26021 0.798437L11.1244 3.12993C11.8564 3.72574 12.1659 4.69998 11.9131 5.61193C11.8324 5.90301 11.5318 6.07343 11.2414 5.99244C10.9512 5.91149 10.7813 5.60988 10.8621 5.31877C10.9985 4.82652 10.8317 4.30085 10.437 3.97954L7.57275 1.64802C6.6614 0.906187 5.33846 0.906187 4.42712 1.64802L1.56289 3.97954C0.937578 4.47039 0.93766 5.47562 1.56289 5.96639L4.42712 8.29789C5.33688 9.03843 6.65688 9.03975 7.56808 8.30166L8.04653 7.8935C8.27597 7.69775 8.62021 7.72557 8.8154 7.95576C9.01056 8.18593 8.9828 8.5312 8.75332 8.72695L8.26986 9.1394C8.26667 9.14214 8.26345 9.14482 8.26021 9.14747C7.62325 9.66598 6.82054 9.95151 5.99993 9.95151ZM8.26021 13.196L11.1244 10.8645C12.2842 9.95411 12.284 8.08865 11.1244 7.17843L8.26021 4.84693C6.98974 3.78234 5.0101 3.7824 3.73965 4.84693L3.33586 5.17913C2.79452 5.66177 3.45045 6.46302 4.02763 6.02515L4.42802 5.6958C5.33939 4.95476 6.66173 4.95498 7.57275 5.69654L10.437 8.02803C11.0623 8.51889 11.0622 9.52412 10.437 10.0149L7.57275 12.3464C6.6614 13.0882 5.33846 13.0882 4.42712 12.3464L1.56289 10.0149C1.20125 9.7205 1.02829 9.25142 1.1115 8.79074C1.1652 8.49342 0.968424 8.20874 0.672024 8.15488C0.375788 8.1011 0.0917982 8.29835 0.0380711 8.59567C-0.116074 9.44917 0.204762 10.3185 0.875424 10.8645L3.73965 13.196C4.37661 13.7144 5.17932 14 5.99993 14C6.82054 14 7.62325 13.7145 8.26021 13.196Z" fill="#9CA3AF"/>
</svg>
