<svg xmlns="http://www.w3.org/2000/svg" viewBox="0 0 800.01 800"><defs><style>.cls-1{fill:#f3ba2f;}</style></defs><g id="Layer_2" data-name="Layer 2"><g id="Layer_1-2" data-name="Layer 1"><polygon class="cls-1" points="244.64 336.17 400 180.81 555.44 336.25 645.84 245.85 400 0 154.24 245.77 244.64 336.17"/><rect class="cls-1" x="26.48" y="336.07" width="127.85" height="127.84" transform="translate(-256.36 181.08) rotate(-45)"/><polygon class="cls-1" points="244.64 463.83 400 619.19 555.44 463.76 645.89 554.11 645.84 554.16 400 800 154.23 554.24 154.11 554.11 244.64 463.83"/><rect class="cls-1" x="645.69" y="336.11" width="127.85" height="127.84" transform="translate(-75.02 618.94) rotate(-45)"/><polygon class="cls-1" points="491.7 399.95 491.73 399.95 400 308.22 332.21 376.01 332.2 376.01 324.42 383.8 308.35 399.87 308.35 399.87 308.22 400 308.35 400.13 400 491.78 491.73 400.05 491.78 400 491.7 399.95"/></g></g></svg>