<svg width="32" height="32" viewBox="0 0 32 32" fill="none" xmlns="http://www.w3.org/2000/svg"><path d="M30.7388 9.78811C27.3078 1.64728 17.9274 -2.1713 9.7866 1.25971C1.64578 4.69072 -2.17102 14.0711 1.25999 22.2119C4.69099 30.3527 14.0713 34.1713 22.2122 30.7403H22.214C30.353 27.3111 34.1716 17.9343 30.7424 9.79347C30.7406 9.79168 30.7406 9.7899 30.7388 9.78811ZM15.9646 29.3257C8.61317 29.3257 2.65489 23.3657 2.65489 16.0161C2.65489 8.66647 8.61495 2.70641 15.9646 2.70641C23.3142 2.70641 29.2742 8.66647 29.2742 16.0161C29.2742 23.3657 23.3159 29.3257 15.9646 29.3257Z" fill="url(#paint0_linear)"></path><path d="M18.9102 26.8056L26.7616 18.9399L18.9048 11.0794L16.0168 13.9693L20.9766 18.9399L16.0132 23.9158L18.9102 26.8056Z" fill="url(#paint1_linear)"></path><path d="M13.0571 5.23367L5.20386 13.0959L13.0571 20.9563L15.9452 18.0754L10.9817 13.0994L15.9505 8.12351L13.0571 5.23367Z" fill="url(#paint2_linear)"></path><defs><linearGradient id="paint0_linear" x1="5.24223" y1="28.2373" x2="26.5346" y2="4.01669" gradientUnits="userSpaceOnUse"><stop stop-color="#328B31"></stop><stop offset="1" stop-color="#96CF24"></stop></linearGradient><linearGradient id="paint1_linear" x1="8.51107" y1="31.1065" x2="29.7995" y2="6.88588" gradientUnits="userSpaceOnUse"><stop stop-color="#328B31"></stop><stop offset="1" stop-color="#96CF24"></stop></linearGradient><linearGradient id="paint2_linear" x1="1.97803" y1="25.3642" x2="23.2704" y2="1.14365" gradientUnits="userSpaceOnUse"><stop stop-color="#328B31"></stop><stop offset="1" stop-color="#96CF24"></stop></linearGradient></defs></svg>